<?xml version="1.0" standalone="no"?>
<!DOCTYPE svg PUBLIC "-//W3C//DTD SVG 20010904//EN"
 "http://www.w3.org/TR/2001/REC-SVG-20010904/DTD/svg10.dtd">
<svg version="1.0" xmlns="http://www.w3.org/2000/svg"
 width="1279.000000pt" height="636.000000pt" viewBox="0 0 1279.000000 636.000000"
 preserveAspectRatio="xMidYMid meet">
<metadata>
Created by potrace 1.16, written by Peter Selinger 2001-2019
</metadata>
<g transform="translate(0.000000,636.000000) scale(0.100000,-0.100000)"
fill="#000000" stroke="none">
<path d="M7 6353 c-9 -8 -9 -6315 -1 -6337 6 -15 578 -16 6395 -16 l6389 0 0
3180 0 3180 -6388 0 c-3514 0 -6392 -3 -6395 -7z m10083 -243 c0 -7 410 -10
1210 -10 l1210 0 0 -2915 0 -2915 -1094 0 c-719 0 -1097 -3 -1101 -10 -9 -14
-1755 -14 -1755 0 0 7 -1385 10 -4135 10 l-4135 0 0 2915 0 2915 4485 0 c2983
0 4485 3 4485 10 0 7 145 10 415 10 270 0 415 -3 415 -10z"/>
<path d="M8280 3864 c-110 -23 -217 -83 -293 -164 -133 -140 -196 -339 -197
-620 0 -275 66 -477 195 -599 100 -93 204 -134 374 -147 294 -22 527 98 637
331 117 245 117 677 1 915 -70 143 -212 251 -372 285 -87 18 -259 18 -345 -1z
m234 -209 c197 -52 288 -259 273 -620 -11 -253 -75 -398 -202 -460 -55 -27
-176 -32 -248 -11 -105 30 -184 128 -224 276 -26 94 -26 446 0 539 63 229 205
327 401 276z"/>
<path d="M2118 3863 l-188 -3 0 -754 0 -754 206 -7 c319 -12 475 6 602 67 81
38 149 105 188 183 27 55 29 69 29 170 0 97 -3 116 -26 165 -32 68 -100 138
-172 175 l-55 29 43 28 c129 86 191 226 166 374 -22 123 -88 212 -200 268
-107 55 -225 66 -593 59z m313 -203 c124 -24 194 -103 194 -221 0 -87 -37
-151 -109 -188 -43 -22 -65 -26 -178 -29 l-128 -4 0 226 0 226 84 0 c46 0 108
-5 137 -10z m71 -660 c113 -35 162 -102 163 -221 0 -67 -4 -81 -30 -125 -23
-38 -43 -56 -87 -77 -52 -26 -69 -29 -197 -34 l-141 -6 0 242 0 241 114 0 c85
0 130 -5 178 -20z"/>
<path d="M6380 3110 l0 -760 136 0 137 0 -7 488 c-3 268 -9 507 -12 532 l-6
45 54 -85 c29 -48 183 -289 343 -538 l289 -452 113 0 113 0 0 760 0 760 -135
0 -135 0 1 -392 c0 -216 4 -448 7 -516 4 -67 7 -122 7 -122 0 0 -156 234 -345
520 l-345 520 -107 0 -108 0 0 -760z"/>
<path d="M3170 3336 c0 -580 4 -628 61 -743 56 -115 167 -204 300 -240 90 -24
319 -24 408 1 95 26 178 71 237 130 62 63 98 131 125 234 18 70 19 114 19 609
l0 533 -135 0 -135 0 0 -499 c0 -293 -4 -520 -10 -551 -12 -64 -53 -156 -83
-188 -39 -43 -97 -65 -178 -70 -113 -7 -180 16 -244 81 -91 93 -89 80 -93 695
l-3 532 -135 0 -134 0 0 -524z"/>
<path d="M4450 3855 c0 -3 106 -217 235 -475 l235 -470 0 -280 0 -280 135 0
135 0 0 280 0 280 235 470 c129 258 235 472 235 475 0 3 -65 5 -143 5 l-144 0
-158 -336 -159 -335 -41 88 c-22 48 -92 199 -155 336 l-115 247 -147 0 c-82 0
-148 -2 -148 -5z"/>
<path d="M9180 3853 c0 -4 93 -345 207 -756 l207 -748 105 3 105 3 152 485
c83 267 157 505 164 529 l12 44 93 -289 c52 -159 129 -397 172 -529 l79 -240
105 -3 105 -3 207 748 c114 411 207 751 207 756 0 4 -62 7 -138 7 l-139 0
-121 -472 c-67 -260 -124 -497 -128 -526 -4 -29 -8 -51 -11 -49 -2 3 -16 51
-32 108 -15 57 -86 292 -157 521 l-129 418 -105 0 -105 0 -147 -477 c-81 -263
-153 -497 -159 -520 -11 -40 -14 -32 -116 370 -58 227 -117 459 -132 517 l-27
105 -137 3 c-75 1 -137 -1 -137 -5z"/>
</g>
</svg>
